<svg xmlns="http://www.w3.org/2000/svg" viewBox="0 0 60 60" fill="none">
  <defs>
    <linearGradient id="xbergGrad" x1="0" y1="0" x2="60" y2="60" gradientUnits="userSpaceOnUse">
      <stop offset="0" stop-color="#22d3ee" />
      <stop offset="0.5" stop-color="#3b82f6" />
      <stop offset="1" stop-color="#7c3aed" />
    </linearGradient>
  </defs>
  <path d="M14 4h20l12 12v34a6 6 0 0 1-6 6H14a6 6 0 0 1-6-6V10a6 6 0 0 1 6-6z" fill="#0b1f3a" />
  <path d="M34 4l12 12H38a4 4 0 0 1-4-4V4z" fill="url(#xbergGrad)" />
  <path d="M20 26l7 8-7 8h5l4.5-5.4L34 42h5l-7-8 7-8h-5l-4.5 5.4L25 26h-5z" fill="url(#xbergGrad)" />
</svg>
