<svg width="24" height="24" viewBox="0 0 24 24" fill="none" xmlns="http://www.w3.org/2000/svg">
<g clip-path="url(#clip0_1832_6332)">
<path d="M3.00002 9H9.00002C9.26524 9 9.5196 8.89464 9.70713 8.70711C9.89467 8.51957 10 8.26522 10 8V2H20.002C20.553 2 21 2.455 21 2.992V21.008C20.9998 21.2712 20.895 21.5235 20.7088 21.7095C20.5226 21.8955 20.2702 22 20.007 22H3.99302C3.8617 21.9991 3.73185 21.9723 3.61087 21.9212C3.48989 21.8701 3.38017 21.7957 3.28796 21.7022C3.19575 21.6087 3.12286 21.4979 3.07346 21.3762C3.02406 21.2545 2.9991 21.1243 3.00002 20.993V9ZM3.00002 7L8.00002 2.003V7H3.00002Z" fill="white"/>
</g>
<defs>
<clipPath id="clip0_1832_6332">
<rect width="24" height="24" fill="white"/>
</clipPath>
</defs>
</svg>
