<svg width="56" height="56" viewBox="0 0 56 56" fill="none" xmlns="http://www.w3.org/2000/svg">
<g clip-path="url(#clip0_1596_11081)">
<path d="M37.3337 4.6665V9.33317H35.0004V16.9002C35.0004 19.6022 35.5861 22.2692 36.7177 24.7215L46.7091 46.3655C47.5187 48.1225 46.7511 50.2015 44.9964 51.0088C44.5367 51.2235 44.0374 51.3332 43.5311 51.3332H12.4697C10.5377 51.3332 8.96973 49.7652 8.96973 47.8332C8.96973 47.3268 9.07939 46.8252 9.29173 46.3655L19.2831 24.7215C20.4147 22.2715 21.0004 19.6022 21.0004 16.9002V9.33317H18.6671V4.6665H37.3337ZM30.3337 9.33317H25.6671V18.6665H30.3337V9.33317Z" fill="white"/>
</g>
<defs>
<clipPath id="clip0_1596_11081">
<rect width="56" height="56" fill="white"/>
</clipPath>
</defs>
</svg>
